<svg xmlns="http://www.w3.org/2000/svg" fill-rule="evenodd" clip-rule="evenodd" viewBox="0 0 2134 2134">
  <path id="artsee_store_icon" fill="none" d="M0 0H2133.3V2133.3H0z"/>
  <path fill="url(#_Linear1)" d="M321.4 321.4H1812V1259.4H321.4z"/>
  <circle cx="842.3" cy="1708.9" r="246.3" fill="#81e34a"/>
  <circle cx="487.8" cy="1543.9" r="316.5" fill="#81e34a"/>
  <circle cx="804.4" cy="1671.3" r="157.9" fill="#81e34a"/>
  <circle cx="1086.3" cy="1538.2" r="360.7" fill="#81e34a"/>
  <ellipse cx="1189.5" cy="1395" fill="#81e34a" rx="124.5" ry="123.6"/>
  <circle cx="1533.7" cy="1418.2" r="358.4" fill="#81e34a"/>
  <circle cx="1382.2" cy="1672.5" r="246.3" fill="#81e34a"/>
  <circle cx="1671.1" cy="1652.3" r="246.3" fill="#81e34a"/>
  <path fill="url(#_Linear2)" d="M171.293,31.445l-141.553,-0l-0,2072.14l2073.85,-0l-0,-141.554l-1932.29,0l0,-1930.59Z"/>
  <path fill="url(#_Linear3)" d="M2103.59,171.293l-0,-141.553l-2026.09,-0l64.807,121.088l1814.62,18.935l-0,1788.86l141.553,144.965l0,-1932.35l5.117,0.053Z"/>
  <circle cx="619.8" cy="650.5" r="194.4" fill="#f1dd08"/>
  <path fill="url(#_Linear4)" fill-rule="nonzero" stroke="#000" stroke-width="1.7" d="M1800.01,1811.95l-1449.65,0l-167.135,146.67l1766.86,0l-0,-1773.68l-150.081,139.848l-0,1487.17Z"/>
  <path fill="#fff" stroke="#000" stroke-miterlimit="10" stroke-width="56.8" d="M1015.29,1066.66c-0,-274.537 -123.629,-497.428 -275.907,-497.428c-152.279,-0 -275.909,222.891 -275.909,497.428c0,274.538 123.63,497.428 275.909,497.428c152.278,0 275.907,-222.89 275.907,-497.428Z"/>
  <path fill="#a78a39" stroke="#000" stroke-miterlimit="10" stroke-width="49.8" d="M784.666,1104.36c-0,-98.364 -70.942,-178.224 -158.324,-178.224c-87.381,-0 -158.323,79.86 -158.323,178.224c-0,98.365 70.942,178.225 158.323,178.225c87.382,-0 158.324,-79.86 158.324,-178.225Z"/>
  <path fill="#fff" stroke="#000" stroke-miterlimit="10" stroke-width="28.4" d="M601.456,1010.53c0,-27.093 -19.289,-49.09 -43.046,-49.09c-23.759,-0 -43.047,21.997 -43.047,49.09c-0,27.093 19.288,49.09 43.047,49.09c23.757,0 43.046,-21.997 43.046,-49.09Z"/>
  <path d="M597.181,989.191c2.74,6.457 4.275,13.696 4.275,21.342c0,27.093 -19.289,49.09 -43.046,49.09c-11.404,0 -21.779,-5.067 -29.486,-13.337c-8.566,17.145 -13.461,36.968 -13.461,58.08c0,65.023 46.414,117.812 103.582,117.812c57.169,-0 103.581,-52.789 103.581,-117.812c0,-65.021 -46.412,-117.81 -103.581,-117.81c-7.501,-0 -14.816,0.907 -21.864,2.635Z"/>
  <path fill="#fff" stroke="#000" stroke-miterlimit="10" stroke-width="56.8" d="M1669.86,1066.66c-0,-274.537 -123.629,-497.428 -275.909,-497.428c-152.277,-0 -275.907,222.891 -275.907,497.428c0,274.538 123.63,497.428 275.907,497.428c152.28,0 275.909,-222.89 275.909,-497.428Z"/>
  <path fill="#a78a39" stroke="#000" stroke-miterlimit="10" stroke-width="49.8" d="M1439.24,1104.36c-0,-98.364 -70.942,-178.224 -158.324,-178.224c-87.381,-0 -158.323,79.86 -158.323,178.224c-0,98.365 70.942,178.225 158.323,178.225c87.382,-0 158.324,-79.86 158.324,-178.225Z"/>
  <path fill="#fff" stroke="#000" stroke-miterlimit="10" stroke-width="28.4" d="M1256.03,1010.53c0,-27.093 -19.289,-49.09 -43.046,-49.09c-23.759,-0 -43.047,21.997 -43.047,49.09c-0,27.093 19.288,49.09 43.047,49.09c23.757,0 43.046,-21.997 43.046,-49.09Z"/>
  <path d="M1251.75,989.191c2.74,6.457 4.275,13.696 4.275,21.342c0,27.093 -19.289,49.09 -43.046,49.09c-11.404,0 -21.779,-5.067 -29.486,-13.337c-8.566,17.145 -13.461,36.968 -13.461,58.08c0,65.023 46.414,117.812 103.582,117.812c57.169,-0 103.581,-52.789 103.581,-117.812c0,-65.021 -46.412,-117.81 -103.581,-117.81c-7.501,-0 -14.816,0.907 -21.864,2.635Z"/>
  <path fill="none" stroke="#000" stroke-linecap="round" stroke-linejoin="round" stroke-miterlimit="1.5" stroke-width="56.8" d="M2104.17,43.378c-0,-7.848 -6.362,-14.211 -14.207,-14.211l-2046.58,-0c-7.848,-0 -14.211,6.363 -14.211,14.211l-0,2046.58c-0,7.845 6.363,14.207 14.211,14.207l2046.58,-0c7.845,-0 14.207,-6.362 14.207,-14.207l-0,-2046.58Z"/>
  <path stroke="#000" stroke-linecap="round" stroke-linejoin="round" stroke-miterlimit="1.5" stroke-width="56.8" d="M1914.16,219.166c8.135,-8.129 10.556,-20.355 6.156,-30.977c-4.4,-10.621 -14.752,-17.545 -26.264,-17.545l-1694.82,-0c-7.566,-0 -14.821,3.016 -20.156,8.382c-5.336,5.367 -8.31,12.637 -8.268,20.205c1.148,199.693 7.97,1386.68 9.686,1685.15c0.066,11.461 7.016,21.762 17.622,26.128c10.606,4.349 22.792,1.91 30.901,-6.208c30.803,-30.801 67.936,-67.929 84.21,-84.199c5.331,-5.338 8.326,-12.569 8.326,-20.107l-0,-1450.02c-0,-7.54 2.994,-14.77 8.326,-20.099c5.329,-5.332 12.559,-8.326 20.099,-8.326l1450.02,-0c7.538,-0 14.769,-2.995 20.107,-8.326c17.669,-17.664 60.05,-60.06 94.057,-94.06Z"/>
  <path fill="none" stroke="#000" stroke-linecap="round" stroke-linejoin="round" stroke-miterlimit="1.5" stroke-width="56.8" d="M1962.68,184.855c0,-7.848 -6.361,-14.211 -14.206,-14.211l-1763.63,-0c-7.849,-0 -14.212,6.363 -14.212,14.211l-0,1763.62c-0,7.845 6.363,14.223 14.212,14.223l1763.63,0c7.845,0 14.206,-6.378 14.206,-14.223l0,-1763.62Z"/>
  <path fill="none" stroke="#000" stroke-linecap="round" stroke-linejoin="round" stroke-miterlimit="1.5" stroke-width="56.8" d="M1811.78,335.763c0,-7.848 -6.361,-14.211 -14.206,-14.211l-1461.81,-0c-7.848,-0 -14.212,6.363 -14.212,14.211l0,1461.8c0,7.845 6.364,14.223 14.212,14.223l1461.81,0c7.845,0 14.206,-6.378 14.206,-14.223l0,-1461.8Z"/>
  <path fill="none" stroke="#000" stroke-linecap="round" stroke-linejoin="round" stroke-miterlimit="1.5" stroke-width="56.8" d="M2098.64,2098.64l-286.86,-286.86"/>
  <path fill="none" stroke="#000" stroke-linecap="round" stroke-linejoin="round" stroke-miterlimit="1.5" stroke-width="56.8" d="M34.691,2098.64l286.861,-286.86"/>
  <path fill="none" stroke="#000" stroke-linecap="round" stroke-linejoin="round" stroke-miterlimit="1.5" stroke-width="56.8" d="M2098.64,34.69l-286.86,286.862"/>
  <path fill="none" stroke="#000" stroke-linecap="round" stroke-linejoin="round" stroke-miterlimit="1.5" stroke-width="56.8" d="M34.691,34.69l286.861,286.862"/>
  <defs>
    <linearGradient id="_Linear1" x1="0" x2="1" y1="0" y2="0" gradientTransform="rotate(90 372.6 694) scale(938.007)" gradientUnits="userSpaceOnUse">
      <stop offset="0" stop-color="#8cd7f5"/>
      <stop offset="1" stop-color="#e8e9f5"/>
    </linearGradient>
    <linearGradient id="_Linear2" x1="0" x2="1" y1="0" y2="0" gradientTransform="scale(2631.4) rotate(-44.7 1 .4)" gradientUnits="userSpaceOnUse">
      <stop offset="0" stop-color="#ffb100"/>
      <stop offset="1" stop-color="#ebc42e"/>
    </linearGradient>
    <linearGradient id="_Linear3" x1="0" x2="1" y1="0" y2="0" gradientTransform="rotate(135.1 984.3 477.5) scale(2563.85)" gradientUnits="userSpaceOnUse">
      <stop offset="0" stop-color="#ffd300"/>
      <stop offset="1" stop-color="#ffb100"/>
    </linearGradient>
    <linearGradient id="_Linear4" x1="0" x2="1" y1="0" y2="0" gradientTransform="rotate(-146.8 1244.2 680.5) scale(1675.463)" gradientUnits="userSpaceOnUse">
      <stop offset="0" stop-color="#fff1ad"/>
      <stop offset="1" stop-color="#fcdf3e"/>
    </linearGradient>
  </defs>
</svg>
